G04*
G04 #@! TF.GenerationSoftware,Altium Limited,Altium Designer,20.0.10 (225)*
G04*
G04 Layer_Physical_Order=2*
G04 Layer_Color=16711680*
%FSLAX25Y25*%
%MOIN*%
G70*
G01*
G75*
%ADD19C,0.01000*%
%ADD20C,0.01200*%
%ADD21O,0.07874X0.07087*%
%ADD22R,0.07874X0.07087*%
%ADD23C,0.07874*%
%ADD24O,0.15748X0.19685*%
%ADD25C,0.03200*%
%ADD26C,0.02400*%
G04:AMPARAMS|DCode=27|XSize=24.5mil|YSize=26mil|CornerRadius=6.13mil|HoleSize=0mil|Usage=FLASHONLY|Rotation=180.000|XOffset=0mil|YOffset=0mil|HoleType=Round|Shape=RoundedRectangle|*
%AMROUNDEDRECTD27*
21,1,0.02450,0.01375,0,0,180.0*
21,1,0.01225,0.02600,0,0,180.0*
1,1,0.01225,-0.00613,0.00688*
1,1,0.01225,0.00613,0.00688*
1,1,0.01225,0.00613,-0.00688*
1,1,0.01225,-0.00613,-0.00688*
%
%ADD27ROUNDEDRECTD27*%
G04:AMPARAMS|DCode=28|XSize=24.5mil|YSize=26mil|CornerRadius=6.13mil|HoleSize=0mil|Usage=FLASHONLY|Rotation=270.000|XOffset=0mil|YOffset=0mil|HoleType=Round|Shape=RoundedRectangle|*
%AMROUNDEDRECTD28*
21,1,0.02450,0.01375,0,0,270.0*
21,1,0.01225,0.02600,0,0,270.0*
1,1,0.01225,-0.00688,-0.00613*
1,1,0.01225,-0.00688,0.00613*
1,1,0.01225,0.00688,0.00613*
1,1,0.01225,0.00688,-0.00613*
%
%ADD28ROUNDEDRECTD28*%
%ADD29O,0.03800X0.01800*%
%ADD30R,0.05000X0.02000*%
G04:AMPARAMS|DCode=31|XSize=36mil|YSize=51mil|CornerRadius=9mil|HoleSize=0mil|Usage=FLASHONLY|Rotation=180.000|XOffset=0mil|YOffset=0mil|HoleType=Round|Shape=RoundedRectangle|*
%AMROUNDEDRECTD31*
21,1,0.03600,0.03300,0,0,180.0*
21,1,0.01800,0.05100,0,0,180.0*
1,1,0.01800,-0.00900,0.01650*
1,1,0.01800,0.00900,0.01650*
1,1,0.01800,0.00900,-0.01650*
1,1,0.01800,-0.00900,-0.01650*
%
%ADD31ROUNDEDRECTD31*%
%ADD32O,0.02362X0.07480*%
G36*
X44256Y-36382D02*
X-44256Y-36382D01*
Y36382D01*
X44256D01*
Y-36382D01*
D02*
G37*
%LPC*%
G36*
X9843Y34306D02*
X8606Y34143D01*
X7454Y33665D01*
X6464Y32906D01*
X5705Y31916D01*
X5354Y31070D01*
X4705D01*
X4312Y32017D01*
X3521Y33049D01*
X2490Y33840D01*
X1500Y34250D01*
Y29528D01*
Y24805D01*
X2490Y25215D01*
X3521Y26006D01*
X4312Y27038D01*
X4705Y27985D01*
X5354D01*
X5668Y27228D01*
X3000Y24559D01*
X2712Y24129D01*
X2612Y23622D01*
Y21549D01*
X2375Y21391D01*
X2063Y20924D01*
X1953Y20372D01*
Y18997D01*
X2063Y18446D01*
X2375Y17979D01*
X2612Y17821D01*
Y16037D01*
X2375Y15879D01*
X2063Y15412D01*
X1953Y14861D01*
Y13486D01*
X2063Y12935D01*
X2375Y12467D01*
X2612Y12309D01*
Y11811D01*
X2712Y11304D01*
X3000Y10874D01*
X3930Y9943D01*
Y9371D01*
X3828Y9302D01*
X3390Y8647D01*
X3236Y7874D01*
Y2756D01*
X3390Y1983D01*
X3828Y1328D01*
X4483Y890D01*
X5256Y736D01*
X6029Y890D01*
X6684Y1328D01*
X7122Y1983D01*
X7276Y2756D01*
Y7874D01*
X7195Y8280D01*
X7587Y8858D01*
X7746Y8889D01*
X7944Y8852D01*
X8322Y8309D01*
X8236Y7874D01*
Y2756D01*
X8390Y1983D01*
X8773Y1410D01*
X8352Y780D01*
X8197Y0D01*
X8352Y-780D01*
X8794Y-1442D01*
X9456Y-1884D01*
X10236Y-2039D01*
X11017Y-1884D01*
X11678Y-1442D01*
X12120Y-780D01*
X12275Y0D01*
X12120Y780D01*
X11719Y1380D01*
X12122Y1983D01*
X12276Y2756D01*
Y7874D01*
X12122Y8647D01*
X11684Y9302D01*
X11668Y9468D01*
X12814Y10614D01*
X13680D01*
X14231Y10724D01*
X14610Y10977D01*
X14957Y10877D01*
X15210Y10722D01*
Y9210D01*
X14023Y8024D01*
X13736Y7594D01*
X13635Y7087D01*
Y-7087D01*
X13736Y-7594D01*
X14023Y-8024D01*
X16801Y-10802D01*
X16553Y-11402D01*
X15454D01*
X14903Y-11511D01*
X14436Y-11823D01*
X14409Y-11863D01*
X12276D01*
Y-10630D01*
X12122Y-9857D01*
X11684Y-9202D01*
X11029Y-8764D01*
X10256Y-8610D01*
X9483Y-8764D01*
X8828Y-9202D01*
X8390Y-9857D01*
X8236Y-10630D01*
Y-15748D01*
X8390Y-16521D01*
X8828Y-17176D01*
X9483Y-17614D01*
X10256Y-17768D01*
X11029Y-17614D01*
X11684Y-17176D01*
X12122Y-16521D01*
X12276Y-15748D01*
Y-14514D01*
X14103D01*
X14124Y-14618D01*
X14436Y-15085D01*
Y-15623D01*
X14124Y-16091D01*
X14014Y-16642D01*
Y-17867D01*
X14124Y-18418D01*
X14436Y-18885D01*
X14816Y-19139D01*
Y-20079D01*
X14917Y-20586D01*
X15204Y-21016D01*
X18360Y-24171D01*
Y-30709D01*
X18461Y-31216D01*
X18748Y-31646D01*
X19973Y-32871D01*
X20403Y-33158D01*
X20910Y-33259D01*
X22440D01*
X22810Y-33630D01*
X22909Y-33696D01*
X23075Y-33807D01*
X23075Y-33807D01*
X23994Y-34187D01*
X23994Y-34187D01*
X23994Y-34187D01*
X24306Y-34249D01*
X24803Y-34249D01*
X25300Y-34249D01*
X25613Y-34187D01*
X26531Y-33807D01*
X26796Y-33630D01*
X27499Y-32927D01*
X27676Y-32662D01*
X28057Y-31743D01*
X28119Y-31431D01*
X28119Y-31110D01*
X28288Y-30746D01*
X28523Y-30485D01*
X28944Y-30402D01*
X29407Y-30092D01*
X30931Y-28568D01*
X30931Y-28568D01*
X31240Y-28105D01*
X31349Y-27559D01*
Y-10163D01*
X33776Y-7736D01*
X34285Y-8076D01*
X33957Y-8866D01*
X33808Y-10000D01*
X33957Y-11134D01*
X34395Y-12190D01*
X35091Y-13098D01*
X35999Y-13794D01*
X37055Y-14232D01*
X38189Y-14381D01*
X38976D01*
X40110Y-14232D01*
X41167Y-13794D01*
X42074Y-13098D01*
X42770Y-12190D01*
X43208Y-11134D01*
X43357Y-10000D01*
X43208Y-8866D01*
X42770Y-7810D01*
X42074Y-6902D01*
X41167Y-6206D01*
X40110Y-5768D01*
X38976Y-5619D01*
X38189D01*
X37055Y-5768D01*
X35999Y-6206D01*
X35528Y-6567D01*
X35035Y-6189D01*
X35111Y-5810D01*
X35111Y-5810D01*
Y-3791D01*
X35649Y-3526D01*
X35999Y-3794D01*
X37055Y-4231D01*
X38189Y-4381D01*
X38976D01*
X40110Y-4231D01*
X41167Y-3794D01*
X42074Y-3098D01*
X42770Y-2190D01*
X43208Y-1134D01*
X43357Y0D01*
X43208Y1134D01*
X42770Y2190D01*
X42074Y3098D01*
X41167Y3794D01*
X40110Y4231D01*
X38976Y4381D01*
X38189D01*
X37055Y4231D01*
X35999Y3794D01*
X35668Y4279D01*
X37145Y5757D01*
X38189Y5619D01*
X38976D01*
X40110Y5768D01*
X41167Y6206D01*
X42074Y6902D01*
X42770Y7810D01*
X43208Y8866D01*
X43357Y10000D01*
X43208Y11134D01*
X42770Y12190D01*
X42074Y13098D01*
X41167Y13794D01*
X40110Y14232D01*
X38976Y14381D01*
X38189D01*
X37055Y14232D01*
X35999Y13794D01*
X35091Y13098D01*
X34395Y12190D01*
X33957Y11134D01*
X33808Y10000D01*
X33957Y8866D01*
X34395Y7810D01*
X34728Y7376D01*
X32973Y5621D01*
X32239Y5721D01*
X31657Y6811D01*
X30573Y8132D01*
X29252Y9216D01*
X27745Y10021D01*
X26110Y10517D01*
X24409Y10684D01*
X22709Y10517D01*
X21074Y10021D01*
X19567Y9216D01*
X18391Y8250D01*
X17837Y8542D01*
X17861Y8661D01*
Y15950D01*
X17760Y16457D01*
X17473Y16887D01*
X16887Y17473D01*
X16457Y17760D01*
X15950Y17861D01*
X14856D01*
X14698Y18098D01*
X14231Y18410D01*
X13680Y18520D01*
X12305D01*
X11754Y18410D01*
X11286Y18098D01*
X10974Y17631D01*
X10864Y17079D01*
Y15854D01*
X10974Y15303D01*
X11286Y14836D01*
Y14298D01*
X10974Y13831D01*
X10864Y13279D01*
Y12414D01*
X10360Y11909D01*
X9767Y11994D01*
X9660Y12148D01*
X9496Y12556D01*
X9749Y12935D01*
X9858Y13486D01*
Y14861D01*
X9749Y15412D01*
X9436Y15879D01*
X8969Y16191D01*
X8418Y16301D01*
X7193D01*
X6642Y16191D01*
X6301Y15964D01*
X5906Y15913D01*
X5510Y15964D01*
X5263Y16129D01*
Y17729D01*
X5343Y17783D01*
X6030Y17835D01*
X6564Y17479D01*
X7193Y17354D01*
X7305D01*
Y19685D01*
Y22017D01*
X7193D01*
X6564Y21892D01*
X6030Y21535D01*
X5343Y21587D01*
X5263Y21641D01*
Y23073D01*
X7542Y25353D01*
X8606Y24913D01*
X9843Y24750D01*
X11079Y24913D01*
X12231Y25390D01*
X13221Y26149D01*
X13980Y27139D01*
X14458Y28291D01*
X14620Y29528D01*
X14458Y30764D01*
X13980Y31916D01*
X13221Y32906D01*
X12231Y33665D01*
X11079Y34143D01*
X9843Y34306D01*
D02*
G37*
G36*
X-9843D02*
X-11079Y34143D01*
X-12231Y33665D01*
X-13221Y32906D01*
X-13980Y31916D01*
X-14458Y30764D01*
X-14620Y29528D01*
X-14458Y28291D01*
X-13980Y27139D01*
X-13221Y26149D01*
X-12231Y25390D01*
X-11079Y24913D01*
X-9843Y24750D01*
X-8606Y24913D01*
X-7542Y25353D01*
X-4806Y22617D01*
X-5055Y22017D01*
X-5662D01*
X-6291Y21892D01*
X-6825Y21535D01*
X-7181Y21002D01*
X-7306Y20372D01*
Y20185D01*
X-5050D01*
Y19685D01*
X-4550D01*
Y17354D01*
X-4437D01*
X-3808Y17479D01*
X-3275Y17835D01*
X-2587Y17783D01*
X-2507Y17729D01*
Y16129D01*
X-2754Y15964D01*
X-3150Y15913D01*
X-3545Y15964D01*
X-3886Y16191D01*
X-4437Y16301D01*
X-5662D01*
X-6213Y16191D01*
X-6680Y15879D01*
X-6866Y15601D01*
X-6901D01*
X-7328Y15886D01*
X-7874Y15994D01*
X-7874Y15994D01*
X-8834D01*
X-8924Y16129D01*
X-9202Y16315D01*
Y18504D01*
X-9311Y19050D01*
X-9621Y19513D01*
X-9621Y19513D01*
X-11195Y21088D01*
X-11659Y21397D01*
X-12205Y21506D01*
X-12205Y21506D01*
X-13352D01*
Y21729D01*
X-13484Y22392D01*
X-13859Y22954D01*
X-14422Y23330D01*
X-15085Y23462D01*
X-16885D01*
X-17548Y23330D01*
X-18111Y22954D01*
X-18486Y22392D01*
X-18618Y21729D01*
Y18429D01*
X-18486Y17765D01*
X-18215Y17359D01*
X-18403Y17078D01*
X-18589Y16142D01*
X-18403Y15205D01*
X-17872Y14411D01*
X-17078Y13881D01*
X-16142Y13695D01*
X-15205Y13881D01*
X-14411Y14411D01*
X-13881Y15205D01*
X-13695Y16142D01*
X-13881Y17078D01*
X-13932Y17155D01*
X-13859Y17203D01*
X-13484Y17765D01*
X-13352Y18429D01*
Y18544D01*
X-12752Y18607D01*
X-12057Y17913D01*
Y16315D01*
X-12336Y16129D01*
X-12648Y15662D01*
X-12758Y15111D01*
Y13886D01*
X-12648Y13335D01*
X-12420Y12994D01*
X-12370Y12598D01*
X-12420Y12202D01*
X-12648Y11862D01*
X-12758Y11311D01*
Y10086D01*
X-12648Y9535D01*
X-12336Y9068D01*
X-11955Y8813D01*
Y8116D01*
X-12336Y7862D01*
X-12648Y7394D01*
X-12758Y6843D01*
Y5618D01*
X-12648Y5067D01*
X-12532Y4893D01*
X-12480Y4206D01*
X-12836Y3672D01*
X-12961Y3043D01*
Y2931D01*
X-10630D01*
X-8298D01*
Y3043D01*
X-8423Y3672D01*
X-8780Y4206D01*
X-8728Y4893D01*
X-8674Y4974D01*
X-8029D01*
X-7777Y4721D01*
X-7347Y4434D01*
X-6839Y4333D01*
X-6764D01*
Y2756D01*
X-6610Y1983D01*
X-6172Y1328D01*
X-5517Y890D01*
X-4744Y736D01*
X-3971Y890D01*
X-3316Y1328D01*
X-2878Y1983D01*
X-2724Y2756D01*
Y7874D01*
X-2878Y8647D01*
X-3316Y9302D01*
X-3971Y9740D01*
X-4744Y9894D01*
X-5517Y9740D01*
X-6172Y9302D01*
X-6610Y8647D01*
X-6731Y8041D01*
X-6738Y8026D01*
X-7110Y7717D01*
X-7364Y7602D01*
X-7480Y7625D01*
X-8766D01*
X-8924Y7862D01*
X-9304Y8116D01*
Y8813D01*
X-8924Y9068D01*
X-8612Y9535D01*
X-8502Y10086D01*
Y11311D01*
X-8612Y11862D01*
X-8839Y12202D01*
X-8890Y12601D01*
X-8491Y13092D01*
X-8433Y13126D01*
X-8027Y12855D01*
X-7480Y12746D01*
X-7480Y12746D01*
X-6866D01*
X-6680Y12467D01*
X-6213Y12155D01*
X-5662Y12046D01*
X-4437D01*
X-3886Y12155D01*
X-3545Y12383D01*
X-3209Y12426D01*
X-2655Y12141D01*
Y11959D01*
X-2554Y11452D01*
X-2266Y11022D01*
X-1162Y9918D01*
X-1172Y9302D01*
X-1610Y8647D01*
X-1764Y7874D01*
Y2756D01*
X-1610Y1983D01*
X-1172Y1328D01*
X-517Y890D01*
X256Y736D01*
X1029Y890D01*
X1684Y1328D01*
X2122Y1983D01*
X2276Y2756D01*
Y7874D01*
X2122Y8647D01*
X1684Y9302D01*
X1581Y9371D01*
Y10374D01*
X1481Y10881D01*
X1193Y11311D01*
X350Y12154D01*
X381Y12467D01*
X693Y12935D01*
X803Y13486D01*
Y14861D01*
X693Y15412D01*
X381Y15879D01*
X144Y16037D01*
Y17821D01*
X381Y17979D01*
X693Y18446D01*
X803Y18997D01*
Y20372D01*
X693Y20924D01*
X381Y21391D01*
X-86Y21703D01*
X-191Y21724D01*
X-244Y21803D01*
X-5668Y27228D01*
X-5354Y27985D01*
X-4705D01*
X-4312Y27038D01*
X-3521Y26006D01*
X-2490Y25215D01*
X-1500Y24805D01*
Y29528D01*
Y34250D01*
X-2490Y33840D01*
X-3521Y33049D01*
X-4312Y32017D01*
X-4705Y31070D01*
X-5354D01*
X-5705Y31916D01*
X-6464Y32906D01*
X-7454Y33665D01*
X-8606Y34143D01*
X-9843Y34306D01*
D02*
G37*
G36*
X40083Y24437D02*
Y21500D01*
X43273D01*
X42945Y22291D01*
X42217Y23240D01*
X41268Y23969D01*
X40162Y24426D01*
X40083Y24437D01*
D02*
G37*
G36*
X-37083D02*
Y21500D01*
X-33893D01*
X-34220Y22291D01*
X-34949Y23240D01*
X-35898Y23969D01*
X-37003Y24426D01*
X-37083Y24437D01*
D02*
G37*
G36*
X37083D02*
X37003Y24426D01*
X35898Y23969D01*
X34949Y23240D01*
X34220Y22291D01*
X33893Y21500D01*
X37083D01*
Y24437D01*
D02*
G37*
G36*
X-40083D02*
X-40162Y24426D01*
X-41268Y23969D01*
X-42217Y23240D01*
X-42945Y22291D01*
X-43273Y21500D01*
X-40083D01*
Y24437D01*
D02*
G37*
G36*
X-22485Y23666D02*
X-22885D01*
Y20579D01*
X-20548D01*
Y21729D01*
X-20695Y22470D01*
X-21115Y23099D01*
X-21744Y23518D01*
X-22485Y23666D01*
D02*
G37*
G36*
X-23885D02*
X-24285D01*
X-25026Y23518D01*
X-25655Y23099D01*
X-26075Y22470D01*
X-26222Y21729D01*
Y20579D01*
X-23885D01*
Y23666D01*
D02*
G37*
G36*
X8418Y22017D02*
X8305D01*
Y20185D01*
X10062D01*
Y20372D01*
X9937Y21002D01*
X9581Y21535D01*
X9047Y21892D01*
X8418Y22017D01*
D02*
G37*
G36*
X10062Y19185D02*
X8305D01*
Y17354D01*
X8418D01*
X9047Y17479D01*
X9581Y17835D01*
X9937Y18368D01*
X10062Y18997D01*
Y19185D01*
D02*
G37*
G36*
X-5550Y19185D02*
X-7306D01*
Y18997D01*
X-7181Y18368D01*
X-6825Y17835D01*
X-6291Y17479D01*
X-5662Y17354D01*
X-5550D01*
Y19185D01*
D02*
G37*
G36*
X-20548Y19579D02*
X-22885D01*
Y16491D01*
X-22485D01*
X-21744Y16639D01*
X-21115Y17059D01*
X-20695Y17687D01*
X-20548Y18429D01*
Y19579D01*
D02*
G37*
G36*
X-23885D02*
X-26222D01*
Y18429D01*
X-26075Y17687D01*
X-25655Y17059D01*
X-25026Y16639D01*
X-24285Y16491D01*
X-23885D01*
Y19579D01*
D02*
G37*
G36*
X-33893Y18500D02*
X-37083D01*
Y15563D01*
X-37003Y15574D01*
X-35898Y16031D01*
X-34949Y16760D01*
X-34220Y17709D01*
X-33893Y18500D01*
D02*
G37*
G36*
X43273D02*
X40083D01*
Y15563D01*
X40162Y15574D01*
X41268Y16031D01*
X42217Y16760D01*
X42945Y17709D01*
X43273Y18500D01*
D02*
G37*
G36*
X37083D02*
X33893D01*
X34220Y17709D01*
X34949Y16760D01*
X35898Y16031D01*
X37003Y15574D01*
X37083Y15563D01*
Y18500D01*
D02*
G37*
G36*
X-40083D02*
X-43273D01*
X-42945Y17709D01*
X-42217Y16760D01*
X-41268Y16031D01*
X-40162Y15574D01*
X-40083Y15563D01*
Y18500D01*
D02*
G37*
G36*
X-38189Y14381D02*
X-38976D01*
X-40110Y14232D01*
X-41167Y13794D01*
X-42074Y13098D01*
X-42770Y12190D01*
X-43208Y11134D01*
X-43357Y10000D01*
X-43208Y8866D01*
X-42770Y7810D01*
X-42074Y6902D01*
X-41167Y6206D01*
X-40110Y5768D01*
X-38976Y5619D01*
X-38189D01*
X-37055Y5768D01*
X-35999Y6206D01*
X-35091Y6902D01*
X-34395Y7810D01*
X-33957Y8866D01*
X-33808Y10000D01*
X-33957Y11134D01*
X-34395Y12190D01*
X-35091Y13098D01*
X-35999Y13794D01*
X-37055Y14232D01*
X-38189Y14381D01*
D02*
G37*
G36*
X-8298Y1931D02*
X-10130D01*
Y174D01*
X-9942D01*
X-9313Y299D01*
X-8780Y656D01*
X-8423Y1189D01*
X-8298Y1818D01*
Y1931D01*
D02*
G37*
G36*
X-11130D02*
X-12961D01*
Y1818D01*
X-12836Y1189D01*
X-12480Y656D01*
X-11947Y299D01*
X-11317Y174D01*
X-11130D01*
Y1931D01*
D02*
G37*
G36*
X-38189Y4381D02*
X-38976D01*
X-40110Y4231D01*
X-41167Y3794D01*
X-42074Y3098D01*
X-42770Y2190D01*
X-43208Y1134D01*
X-43357Y0D01*
X-43208Y-1134D01*
X-42770Y-2190D01*
X-42074Y-3098D01*
X-41167Y-3794D01*
X-40110Y-4231D01*
X-38976Y-4381D01*
X-38189D01*
X-37055Y-4231D01*
X-35999Y-3794D01*
X-35091Y-3098D01*
X-34395Y-2190D01*
X-33957Y-1134D01*
X-33808Y0D01*
X-33957Y1134D01*
X-34395Y2190D01*
X-35091Y3098D01*
X-35999Y3794D01*
X-37055Y4231D01*
X-38189Y4381D01*
D02*
G37*
G36*
X-24409Y10684D02*
X-26110Y10517D01*
X-27745Y10021D01*
X-29252Y9216D01*
X-30573Y8132D01*
X-31657Y6811D01*
X-32462Y5304D01*
X-32958Y3669D01*
X-33125Y1969D01*
Y-1969D01*
X-32958Y-3669D01*
X-32462Y-5304D01*
X-31657Y-6811D01*
X-30573Y-8132D01*
X-29252Y-9216D01*
X-27745Y-10021D01*
X-26110Y-10517D01*
X-24409Y-10684D01*
X-22709Y-10517D01*
X-21074Y-10021D01*
X-19567Y-9216D01*
X-18246Y-8132D01*
X-17162Y-6811D01*
X-16357Y-5304D01*
X-15861Y-3669D01*
X-15694Y-1969D01*
Y1969D01*
X-15861Y3669D01*
X-16357Y5304D01*
X-17162Y6811D01*
X-18246Y8132D01*
X-19567Y9216D01*
X-21074Y10021D01*
X-22709Y10517D01*
X-24409Y10684D01*
D02*
G37*
G36*
X-4244Y-8506D02*
Y-12689D01*
X-2520D01*
Y-10630D01*
X-2689Y-9779D01*
X-3172Y-9057D01*
X-3893Y-8575D01*
X-4244Y-8506D01*
D02*
G37*
G36*
X-5244Y-8506D02*
X-5595Y-8575D01*
X-6317Y-9057D01*
X-6799Y-9779D01*
X-6968Y-10630D01*
Y-12689D01*
X-5244D01*
Y-8506D01*
D02*
G37*
G36*
X-38189Y-5619D02*
X-38976D01*
X-40110Y-5768D01*
X-41167Y-6206D01*
X-42074Y-6902D01*
X-42770Y-7810D01*
X-43208Y-8866D01*
X-43357Y-10000D01*
X-43208Y-11134D01*
X-42770Y-12190D01*
X-42074Y-13098D01*
X-41167Y-13794D01*
X-40110Y-14232D01*
X-38976Y-14381D01*
X-38189D01*
X-37055Y-14232D01*
X-35999Y-13794D01*
X-35091Y-13098D01*
X-34395Y-12190D01*
X-33957Y-11134D01*
X-33808Y-10000D01*
X-33957Y-8866D01*
X-34395Y-7810D01*
X-35091Y-6902D01*
X-35999Y-6206D01*
X-37055Y-5768D01*
X-38189Y-5619D01*
D02*
G37*
G36*
X-2520Y-13689D02*
X-4244D01*
Y-17872D01*
X-3893Y-17803D01*
X-3172Y-17321D01*
X-2689Y-16599D01*
X-2520Y-15748D01*
Y-13689D01*
D02*
G37*
G36*
X-5244D02*
X-6968D01*
Y-15748D01*
X-6799Y-16599D01*
X-6317Y-17321D01*
X-5595Y-17803D01*
X-5244Y-17872D01*
Y-13689D01*
D02*
G37*
G36*
X5256Y-8610D02*
X4483Y-8764D01*
X3828Y-9202D01*
X3390Y-9857D01*
X3236Y-10630D01*
Y-15748D01*
X3390Y-16521D01*
X3828Y-17176D01*
X3930Y-17245D01*
Y-18467D01*
X3676Y-18637D01*
X3234Y-19298D01*
X3079Y-20079D01*
X3234Y-20859D01*
X3676Y-21521D01*
X4338Y-21963D01*
X5118Y-22118D01*
X5898Y-21963D01*
X6560Y-21521D01*
X7002Y-20859D01*
X7157Y-20079D01*
X7002Y-19298D01*
X6581Y-18669D01*
Y-17245D01*
X6684Y-17176D01*
X7122Y-16521D01*
X7276Y-15748D01*
Y-10630D01*
X7122Y-9857D01*
X6684Y-9202D01*
X6029Y-8764D01*
X5256Y-8610D01*
D02*
G37*
G36*
X43320Y-15657D02*
X33846D01*
Y-24343D01*
X43320D01*
Y-15657D01*
D02*
G37*
G36*
X-33846D02*
X-43320D01*
Y-24343D01*
X-33846D01*
Y-15657D01*
D02*
G37*
G36*
X256Y-8610D02*
X-517Y-8764D01*
X-1172Y-9202D01*
X-1610Y-9857D01*
X-1764Y-10630D01*
Y-15748D01*
X-1610Y-16521D01*
X-1172Y-17176D01*
X-1070Y-17245D01*
Y-22423D01*
X-4486Y-25840D01*
X-5427D01*
X-5705Y-25170D01*
X-6464Y-24181D01*
X-7454Y-23421D01*
X-8606Y-22944D01*
X-9843Y-22781D01*
X-11079Y-22944D01*
X-12231Y-23421D01*
X-13221Y-24181D01*
X-13980Y-25170D01*
X-14458Y-26322D01*
X-14620Y-27559D01*
X-14458Y-28796D01*
X-13980Y-29948D01*
X-13221Y-30937D01*
X-12231Y-31697D01*
X-11079Y-32174D01*
X-9843Y-32337D01*
X-8606Y-32174D01*
X-7454Y-31697D01*
X-6464Y-30937D01*
X-5705Y-29948D01*
X-5227Y-28796D01*
X-5187Y-28491D01*
X-3937D01*
X-3430Y-28390D01*
X-3000Y-28103D01*
X1193Y-23910D01*
X1481Y-23480D01*
X1581Y-22972D01*
Y-17245D01*
X1684Y-17176D01*
X2122Y-16521D01*
X2276Y-15748D01*
Y-10630D01*
X2122Y-9857D01*
X1684Y-9202D01*
X1029Y-8764D01*
X256Y-8610D01*
D02*
G37*
G36*
X11343Y-22837D02*
Y-26059D01*
X14565D01*
X14155Y-25069D01*
X13364Y-24038D01*
X12332Y-23247D01*
X11343Y-22837D01*
D02*
G37*
G36*
X8343Y-22837D02*
X7353Y-23247D01*
X6321Y-24038D01*
X5530Y-25069D01*
X5120Y-26059D01*
X8343D01*
Y-22837D01*
D02*
G37*
G36*
X14565Y-29059D02*
X11343D01*
Y-32282D01*
X12332Y-31872D01*
X13364Y-31080D01*
X14155Y-30049D01*
X14565Y-29059D01*
D02*
G37*
G36*
X8343D02*
X5120D01*
X5530Y-30049D01*
X6321Y-31080D01*
X7353Y-31872D01*
X8343Y-32282D01*
Y-29059D01*
D02*
G37*
%LPD*%
G36*
X26219Y-25214D02*
X26923Y-25918D01*
X27303Y-26837D01*
X27303Y-27334D01*
X22303Y-27334D01*
X22303Y-26837D01*
X22684Y-25918D01*
X23387Y-25214D01*
X24306Y-24834D01*
X24803Y-24834D01*
X24803Y-24834D01*
X25300Y-24834D01*
X26219Y-25214D01*
D02*
G37*
G36*
X27303Y-27334D02*
X27303Y-27334D01*
Y-27334D01*
X27303D01*
D02*
G37*
G36*
X27303Y-30934D02*
X27303Y-31431D01*
X26923Y-32350D01*
X26219Y-33053D01*
X25300Y-33434D01*
X24803Y-33434D01*
X24306Y-33434D01*
X23387Y-33053D01*
X22684Y-32350D01*
X22303Y-31431D01*
X22303Y-30934D01*
X27303Y-30934D01*
D02*
G37*
D19*
X16142Y-13454D02*
X18573D01*
X20351Y-15233D01*
X16142Y-20079D02*
Y-17254D01*
Y-20079D02*
X19685Y-23622D01*
X10236Y5118D02*
Y9911D01*
X10246Y4734D02*
X10433Y4921D01*
X10236Y9911D02*
X12992Y12667D01*
X19685Y-30709D02*
Y-23622D01*
X20910Y-31934D02*
X24803D01*
X19685Y-30709D02*
X20910Y-31934D01*
X24803Y-26334D02*
Y-16929D01*
X14961Y-7087D02*
X24803Y-16929D01*
X5256Y-20079D02*
Y-13189D01*
X-1181Y19685D02*
Y20866D01*
Y14567D02*
Y19685D01*
X3937D02*
Y23622D01*
Y14173D02*
Y19685D01*
X10246Y10D02*
Y4734D01*
X10236Y0D02*
X10246Y10D01*
X20351Y-16807D02*
Y-15233D01*
Y-16807D02*
X20472Y-16929D01*
X16535Y8661D02*
Y15950D01*
X15950Y16535D02*
X16535Y15950D01*
X12992Y16535D02*
X15950D01*
X14961Y7087D02*
X16535Y8661D01*
X14961Y-7087D02*
Y7087D01*
X5118Y-20591D02*
Y-20079D01*
Y-20591D02*
X5256Y-20728D01*
Y-13189D01*
X15945D02*
X16142Y-13386D01*
X10256Y-13189D02*
X15945D01*
X5256Y5315D02*
Y10492D01*
X3937Y11811D02*
Y14173D01*
Y11811D02*
X5256Y10492D01*
X-9843Y-27559D02*
X-9449Y-27165D01*
X-3937D01*
X256Y-22972D02*
Y-13189D01*
X-3937Y-27165D02*
X256Y-22972D01*
X-10630Y6299D02*
X-7480D01*
X-5087Y5658D02*
X-4744Y5315D01*
X-6839Y5658D02*
X-5087D01*
X-7480Y6299D02*
X-6839Y5658D01*
X-10630Y6299D02*
Y10698D01*
X-1329Y11959D02*
Y14321D01*
X-1181Y14173D02*
Y14567D01*
X-1575D02*
X-1329Y14321D01*
X256Y5315D02*
Y10374D01*
X-1329Y11959D02*
X256Y10374D01*
X-9843Y29528D02*
X-1181Y20866D01*
X3937Y23622D02*
X9843Y29528D01*
D20*
X-16063Y16220D02*
Y20000D01*
X-16142Y16142D02*
X-16063Y16220D01*
X29921Y-27559D02*
Y-9572D01*
X28398Y-29083D02*
X29921Y-27559D01*
X24803Y-29134D02*
X24854Y-29083D01*
X33683Y4313D02*
X39370Y10000D01*
X7840Y11058D02*
X7874Y11024D01*
X7840Y11058D02*
Y14139D01*
X7806Y14173D02*
X7840Y14139D01*
X29921Y-9572D02*
X33683Y-5810D01*
Y4313D01*
X24854Y-29083D02*
X28398D01*
X-16063Y20000D02*
X-15985Y20079D01*
X-10630Y14567D02*
X-7874D01*
X-10630D02*
Y18504D01*
X-15985Y20079D02*
X-12205D01*
X-10630Y18504D01*
X-7480Y14173D02*
X-5050D01*
X-7874Y14567D02*
X-7480Y14173D01*
D21*
X-38583Y20000D02*
D03*
Y10000D02*
D03*
Y0D02*
D03*
Y-10000D02*
D03*
X38583Y20000D02*
D03*
Y10000D02*
D03*
Y0D02*
D03*
Y-10000D02*
D03*
D22*
X-38583Y-20000D02*
D03*
X38583D02*
D03*
D23*
X9843Y-27559D02*
D03*
X-9843D02*
D03*
Y29528D02*
D03*
X0D02*
D03*
X9843D02*
D03*
D24*
X-24409Y0D02*
D03*
X24409D02*
D03*
D25*
X-16142Y16142D02*
D03*
D26*
X13386Y9055D02*
D03*
X33071Y-12205D02*
D03*
X25591Y12205D02*
D03*
X19685Y11417D02*
D03*
X-8386Y-4961D02*
D03*
X16614Y25039D02*
D03*
X19114Y30039D02*
D03*
X-28386Y-24961D02*
D03*
X41614Y-34961D02*
D03*
X-13386D02*
D03*
X1614D02*
D03*
X-35886Y30039D02*
D03*
X-886Y-29961D02*
D03*
X6614Y-34961D02*
D03*
X19114Y20039D02*
D03*
X26614Y25039D02*
D03*
X29114Y20039D02*
D03*
X-15886Y-29961D02*
D03*
X29114Y30039D02*
D03*
X21614Y25039D02*
D03*
X-35886Y-29961D02*
D03*
X-28386Y-34961D02*
D03*
X-13386Y-4961D02*
D03*
X31614Y-34961D02*
D03*
X36614D02*
D03*
X-15886Y10039D02*
D03*
X31614Y25039D02*
D03*
X-8386Y-34961D02*
D03*
X4114Y-29961D02*
D03*
X1614Y-4961D02*
D03*
X39114Y30039D02*
D03*
X-3386Y-4961D02*
D03*
X-33386Y-24961D02*
D03*
X-20886Y30039D02*
D03*
X-38386Y-34961D02*
D03*
X-23386Y25039D02*
D03*
X16614Y-34961D02*
D03*
X21614D02*
D03*
X-30886Y30039D02*
D03*
X11614Y-34961D02*
D03*
X-18386Y25039D02*
D03*
X-33386Y-34961D02*
D03*
X-18386D02*
D03*
X6614Y-4961D02*
D03*
X-15886Y30039D02*
D03*
X34114Y-29961D02*
D03*
X-33386Y25039D02*
D03*
X-25886Y30039D02*
D03*
X24114D02*
D03*
Y20039D02*
D03*
X34114Y30039D02*
D03*
X-28386Y25039D02*
D03*
X-3386Y-34961D02*
D03*
X-30886Y-29961D02*
D03*
X14114Y20039D02*
D03*
X-8661Y-13386D02*
D03*
X-20472Y-12598D02*
D03*
X-4724Y-22835D02*
D03*
X7874Y11024D02*
D03*
X10236Y0D02*
D03*
X20472Y-16929D02*
D03*
X5118Y-20079D02*
D03*
D27*
X-1250Y19685D02*
D03*
X-5050D02*
D03*
X4005D02*
D03*
X7806D02*
D03*
X-1250Y14173D02*
D03*
X-5050D02*
D03*
X4005D02*
D03*
X7806D02*
D03*
D28*
X-10630Y10698D02*
D03*
Y14498D02*
D03*
Y2431D02*
D03*
Y6231D02*
D03*
X12992Y12667D02*
D03*
Y16467D02*
D03*
X16142Y-13454D02*
D03*
Y-17254D02*
D03*
D29*
X24803Y-26334D02*
D03*
Y-31934D02*
D03*
D30*
Y-29134D02*
D03*
D31*
X-15985Y20079D02*
D03*
X-23385D02*
D03*
D32*
X10256Y5315D02*
D03*
X5256D02*
D03*
X256D02*
D03*
X-4744D02*
D03*
X5256Y-13189D02*
D03*
X256D02*
D03*
X10256D02*
D03*
X-4744D02*
D03*
M02*
