G04*
G04 #@! TF.GenerationSoftware,Altium Limited,Altium Designer,20.0.10 (225)*
G04*
G04 Layer_Physical_Order=1*
G04 Layer_Color=255*
%FSLAX25Y25*%
%MOIN*%
G70*
G01*
G75*
%ADD18C,0.03000*%
%ADD19C,0.01000*%
%ADD20C,0.01200*%
%ADD21O,0.07874X0.07087*%
%ADD22R,0.07874X0.07087*%
%ADD23C,0.07874*%
%ADD24O,0.15748X0.19685*%
%ADD25C,0.03200*%
%ADD26C,0.02400*%
G36*
X44256Y-36382D02*
X-44256Y-36382D01*
Y36382D01*
X44256D01*
Y-36382D01*
D02*
G37*
%LPC*%
G36*
X9843Y34306D02*
X8606Y34143D01*
X7454Y33665D01*
X6464Y32906D01*
X5705Y31916D01*
X5354Y31070D01*
X4705D01*
X4312Y32017D01*
X3521Y33049D01*
X2490Y33840D01*
X1500Y34250D01*
Y29528D01*
Y24805D01*
X2490Y25215D01*
X3521Y26006D01*
X4312Y27038D01*
X4705Y27985D01*
X5354D01*
X5705Y27139D01*
X6464Y26149D01*
X7454Y25390D01*
X8606Y24913D01*
X9843Y24750D01*
X11079Y24913D01*
X12231Y25390D01*
X13221Y26149D01*
X13980Y27139D01*
X14458Y28291D01*
X14620Y29528D01*
X14458Y30764D01*
X13980Y31916D01*
X13221Y32906D01*
X12231Y33665D01*
X11079Y34143D01*
X9843Y34306D01*
D02*
G37*
G36*
X-9843D02*
X-11079Y34143D01*
X-12231Y33665D01*
X-13221Y32906D01*
X-13980Y31916D01*
X-14458Y30764D01*
X-14620Y29528D01*
X-14458Y28291D01*
X-13980Y27139D01*
X-13221Y26149D01*
X-12231Y25390D01*
X-11079Y24913D01*
X-9843Y24750D01*
X-8606Y24913D01*
X-7454Y25390D01*
X-6464Y26149D01*
X-5705Y27139D01*
X-5354Y27985D01*
X-4705D01*
X-4312Y27038D01*
X-3521Y26006D01*
X-2490Y25215D01*
X-1500Y24805D01*
Y29528D01*
Y34250D01*
X-2490Y33840D01*
X-3521Y33049D01*
X-4312Y32017D01*
X-4705Y31070D01*
X-5354D01*
X-5705Y31916D01*
X-6464Y32906D01*
X-7454Y33665D01*
X-8606Y34143D01*
X-9843Y34306D01*
D02*
G37*
G36*
X40083Y24437D02*
Y21500D01*
X43273D01*
X42945Y22291D01*
X42217Y23240D01*
X41268Y23969D01*
X40162Y24426D01*
X40083Y24437D01*
D02*
G37*
G36*
X-37083D02*
Y21500D01*
X-33893D01*
X-34220Y22291D01*
X-34949Y23240D01*
X-35898Y23969D01*
X-37003Y24426D01*
X-37083Y24437D01*
D02*
G37*
G36*
X-40083D02*
X-40162Y24426D01*
X-41268Y23969D01*
X-42217Y23240D01*
X-42945Y22291D01*
X-43273Y21500D01*
X-40083D01*
Y24437D01*
D02*
G37*
G36*
X37083D02*
X37003Y24426D01*
X35898Y23969D01*
X34949Y23240D01*
X34220Y22291D01*
X33893Y21500D01*
X37083D01*
Y24437D01*
D02*
G37*
G36*
X-16142Y18589D02*
X-16654Y18487D01*
X-29921D01*
X-29921Y18487D01*
X-30819Y18308D01*
X-31580Y17800D01*
X-35410Y13970D01*
X-35459D01*
X-36110Y13840D01*
X-37055Y14232D01*
X-38189Y14381D01*
X-38976D01*
X-40110Y14232D01*
X-41167Y13794D01*
X-42074Y13098D01*
X-42770Y12190D01*
X-43208Y11134D01*
X-43357Y10000D01*
X-43208Y8866D01*
X-42770Y7810D01*
X-42074Y6902D01*
X-41167Y6206D01*
X-40110Y5768D01*
X-38976Y5619D01*
X-38836D01*
X-38588Y5019D01*
X-39045Y4562D01*
X-39184Y4353D01*
X-40110Y4231D01*
X-41167Y3794D01*
X-42074Y3098D01*
X-42770Y2190D01*
X-43208Y1134D01*
X-43357Y0D01*
X-43208Y-1134D01*
X-42770Y-2190D01*
X-42074Y-3098D01*
X-41167Y-3794D01*
X-40110Y-4231D01*
X-38976Y-4381D01*
X-38189D01*
X-37055Y-4231D01*
X-35999Y-3794D01*
X-35091Y-3098D01*
X-34395Y-2190D01*
X-33957Y-1134D01*
X-33808Y0D01*
X-33957Y1134D01*
X-34395Y2190D01*
X-35091Y3098D01*
X-35555Y3454D01*
X-35608Y4250D01*
X-28191Y11667D01*
X-3305D01*
X8224Y137D01*
X8197Y0D01*
X8352Y-780D01*
X8794Y-1442D01*
X9456Y-1884D01*
X10236Y-2039D01*
X10374Y-2012D01*
X12848Y-4486D01*
Y-6693D01*
X12949Y-7200D01*
X13236Y-7630D01*
X17960Y-12355D01*
X18390Y-12642D01*
X18898Y-12743D01*
X29134D01*
X29641Y-12642D01*
X30071Y-12355D01*
X33321Y-9105D01*
X33889Y-9385D01*
X33808Y-10000D01*
X33957Y-11134D01*
X34395Y-12190D01*
X34790Y-12705D01*
X31892Y-15604D01*
X21992D01*
X21914Y-15487D01*
X21253Y-15045D01*
X20472Y-14890D01*
X19692Y-15045D01*
X19030Y-15487D01*
X18953Y-15604D01*
X-27797D01*
X-33870Y-9531D01*
X-33957Y-8866D01*
X-34395Y-7810D01*
X-35091Y-6902D01*
X-35999Y-6206D01*
X-37055Y-5768D01*
X-38189Y-5619D01*
X-38976D01*
X-40110Y-5768D01*
X-41167Y-6206D01*
X-42074Y-6902D01*
X-42770Y-7810D01*
X-43208Y-8866D01*
X-43357Y-10000D01*
X-43208Y-11134D01*
X-42770Y-12190D01*
X-42074Y-13098D01*
X-41167Y-13794D01*
X-40110Y-14232D01*
X-38976Y-14381D01*
X-38189D01*
X-37055Y-14232D01*
X-35999Y-13794D01*
X-35091Y-13098D01*
X-34917Y-12871D01*
X-34319Y-12832D01*
X-29284Y-17866D01*
X-28972Y-18075D01*
X-29077Y-18675D01*
X-33846D01*
Y-15657D01*
X-43320D01*
Y-24343D01*
X-33846D01*
Y-21326D01*
X3546D01*
X3676Y-21521D01*
X4338Y-21963D01*
X5118Y-22118D01*
X5898Y-21963D01*
X6560Y-21521D01*
X6690Y-21326D01*
X33846D01*
Y-24343D01*
X43320D01*
Y-15657D01*
X36372D01*
X36142Y-15102D01*
X37025Y-14219D01*
X37055Y-14232D01*
X38189Y-14381D01*
X38976D01*
X40110Y-14232D01*
X41167Y-13794D01*
X42074Y-13098D01*
X42770Y-12190D01*
X43208Y-11134D01*
X43357Y-10000D01*
X43208Y-8866D01*
X42770Y-7810D01*
X42074Y-6902D01*
X41167Y-6206D01*
X40110Y-5768D01*
X38976Y-5619D01*
X38189D01*
X37574Y-5700D01*
X37294Y-5132D01*
X38062Y-4364D01*
X38189Y-4381D01*
X38976D01*
X40110Y-4231D01*
X41167Y-3794D01*
X42074Y-3098D01*
X42770Y-2190D01*
X43208Y-1134D01*
X43357Y0D01*
X43208Y1134D01*
X42770Y2190D01*
X42074Y3098D01*
X41167Y3794D01*
X40110Y4231D01*
X38976Y4381D01*
X38189D01*
X37055Y4231D01*
X35999Y3794D01*
X35091Y3098D01*
X34395Y2190D01*
X33957Y1134D01*
X33808Y0D01*
X33957Y-1134D01*
X34395Y-2190D01*
X35091Y-3098D01*
X35121Y-3555D01*
X32878Y-5799D01*
X32390Y-5438D01*
X32462Y-5304D01*
X32958Y-3669D01*
X33125Y-1969D01*
Y1969D01*
X32958Y3669D01*
X32462Y5304D01*
X31657Y6811D01*
X30573Y8132D01*
X29252Y9216D01*
X27745Y10021D01*
X26110Y10517D01*
X24409Y10684D01*
X22709Y10517D01*
X21074Y10021D01*
X19567Y9216D01*
X18246Y8132D01*
X17162Y6811D01*
X16357Y5304D01*
X15861Y3669D01*
X15694Y1969D01*
Y-1969D01*
X15789Y-2935D01*
X15206Y-3143D01*
X15111Y-3000D01*
X12248Y-137D01*
X12275Y0D01*
X12120Y780D01*
X11678Y1442D01*
X11017Y1884D01*
X10236Y2039D01*
X10099Y2012D01*
X-1132Y13242D01*
X-902Y13797D01*
X6447D01*
Y12475D01*
X6432Y12466D01*
X5990Y11804D01*
X5835Y11024D01*
X5990Y10243D01*
X6432Y9582D01*
X7094Y9140D01*
X7874Y8984D01*
X8654Y9140D01*
X9316Y9582D01*
X9758Y10243D01*
X9913Y11024D01*
X9758Y11804D01*
X9316Y12466D01*
X9301Y12475D01*
Y13797D01*
X26194D01*
X31649Y8342D01*
X32410Y7833D01*
X33307Y7655D01*
X34514D01*
X35091Y6902D01*
X35999Y6206D01*
X37055Y5768D01*
X38189Y5619D01*
X38976D01*
X40110Y5768D01*
X41167Y6206D01*
X42074Y6902D01*
X42770Y7810D01*
X43208Y8866D01*
X43357Y10000D01*
X43208Y11134D01*
X42770Y12190D01*
X42074Y13098D01*
X41167Y13794D01*
X40110Y14232D01*
X38976Y14381D01*
X38189D01*
X37055Y14232D01*
X35999Y13794D01*
X35091Y13098D01*
X34751Y12654D01*
X34011Y12612D01*
X28824Y17800D01*
X28063Y18308D01*
X27165Y18487D01*
X-15629D01*
X-16142Y18589D01*
D02*
G37*
G36*
X-33893Y18500D02*
X-37083D01*
Y15563D01*
X-37003Y15574D01*
X-35898Y16031D01*
X-34949Y16760D01*
X-34220Y17709D01*
X-33893Y18500D01*
D02*
G37*
G36*
X43273D02*
X40083D01*
Y15563D01*
X40162Y15574D01*
X41268Y16031D01*
X42217Y16760D01*
X42945Y17709D01*
X43273Y18500D01*
D02*
G37*
G36*
X37083D02*
X33893D01*
X34220Y17709D01*
X34949Y16760D01*
X35898Y16031D01*
X37003Y15574D01*
X37083Y15563D01*
Y18500D01*
D02*
G37*
G36*
X-40083D02*
X-43273D01*
X-42945Y17709D01*
X-42217Y16760D01*
X-41268Y16031D01*
X-40162Y15574D01*
X-40083Y15563D01*
Y18500D01*
D02*
G37*
G36*
X-24409Y10684D02*
X-26110Y10517D01*
X-27745Y10021D01*
X-29252Y9216D01*
X-30573Y8132D01*
X-31657Y6811D01*
X-32462Y5304D01*
X-32958Y3669D01*
X-33125Y1969D01*
Y-1969D01*
X-32958Y-3669D01*
X-32462Y-5304D01*
X-31657Y-6811D01*
X-30573Y-8132D01*
X-29252Y-9216D01*
X-27745Y-10021D01*
X-26110Y-10517D01*
X-24409Y-10684D01*
X-22709Y-10517D01*
X-21074Y-10021D01*
X-19567Y-9216D01*
X-18246Y-8132D01*
X-17162Y-6811D01*
X-16357Y-5304D01*
X-15861Y-3669D01*
X-15694Y-1969D01*
Y1969D01*
X-15861Y3669D01*
X-16357Y5304D01*
X-17162Y6811D01*
X-18246Y8132D01*
X-19567Y9216D01*
X-21074Y10021D01*
X-22709Y10517D01*
X-24409Y10684D01*
D02*
G37*
G36*
X11343Y-22837D02*
Y-26059D01*
X14565D01*
X14155Y-25069D01*
X13364Y-24038D01*
X12332Y-23247D01*
X11343Y-22837D01*
D02*
G37*
G36*
X8343Y-22837D02*
X7353Y-23247D01*
X6321Y-24038D01*
X5530Y-25069D01*
X5120Y-26059D01*
X8343D01*
Y-22837D01*
D02*
G37*
G36*
X14565Y-29059D02*
X11343D01*
Y-32282D01*
X12332Y-31872D01*
X13364Y-31080D01*
X14155Y-30049D01*
X14565Y-29059D01*
D02*
G37*
G36*
X8343D02*
X5120D01*
X5530Y-30049D01*
X6321Y-31080D01*
X7353Y-31872D01*
X8343Y-32282D01*
Y-29059D01*
D02*
G37*
G36*
X-9843Y-22781D02*
X-11079Y-22944D01*
X-12231Y-23421D01*
X-13221Y-24181D01*
X-13980Y-25170D01*
X-14458Y-26322D01*
X-14620Y-27559D01*
X-14458Y-28796D01*
X-13980Y-29948D01*
X-13221Y-30937D01*
X-12231Y-31697D01*
X-11079Y-32174D01*
X-9843Y-32337D01*
X-8606Y-32174D01*
X-7454Y-31697D01*
X-6464Y-30937D01*
X-5705Y-29948D01*
X-5227Y-28796D01*
X-5065Y-27559D01*
X-5227Y-26322D01*
X-5705Y-25170D01*
X-6464Y-24181D01*
X-7454Y-23421D01*
X-8606Y-22944D01*
X-9843Y-22781D01*
D02*
G37*
%LPD*%
D18*
X-29921Y16142D02*
X-16142D01*
X-38583Y10000D02*
X-37083D01*
X-35459Y11625D01*
X-34438D01*
X-29921Y16142D01*
X-16142D02*
X7874D01*
X27165D01*
X33307Y10000D02*
X39370D01*
X27165Y16142D02*
X33307Y10000D01*
D19*
X-38107Y3625D02*
X-28740Y12992D01*
X-2756D01*
X10236Y0D01*
X-38107Y1263D02*
Y3625D01*
X29134Y-11417D02*
X39370Y-1181D01*
X-39370Y0D02*
X-38107Y1263D01*
X39370Y-1181D02*
Y0D01*
X10236D02*
X14173Y-3937D01*
X18898Y-11417D02*
X29134D01*
X-34913Y-10363D02*
X-28346Y-16929D01*
X5118Y-20079D02*
Y-20000D01*
X-39370D02*
X5118D01*
X-39007Y-10363D02*
X-34913D01*
X14173Y-6693D02*
Y-3937D01*
X20472Y-16929D02*
X32441D01*
X-39370Y-10000D02*
X-39007Y-10363D01*
X32441Y-16929D02*
X39370Y-10000D01*
X5118Y-20000D02*
X39370D01*
X14173Y-6693D02*
X18898Y-11417D01*
X-28346Y-16929D02*
X20472D01*
D20*
X7874Y11024D02*
Y16142D01*
D21*
X-38583Y20000D02*
D03*
Y10000D02*
D03*
Y0D02*
D03*
Y-10000D02*
D03*
X38583Y20000D02*
D03*
Y10000D02*
D03*
Y0D02*
D03*
Y-10000D02*
D03*
D22*
X-38583Y-20000D02*
D03*
X38583D02*
D03*
D23*
X9843Y-27559D02*
D03*
X-9843D02*
D03*
Y29528D02*
D03*
X0D02*
D03*
X9843D02*
D03*
D24*
X-24409Y0D02*
D03*
X24409D02*
D03*
D25*
X-16142Y16142D02*
D03*
D26*
X13386Y9055D02*
D03*
X33071Y-12205D02*
D03*
X25591Y12205D02*
D03*
X19685Y11417D02*
D03*
X-8386Y-4961D02*
D03*
X16614Y25039D02*
D03*
X19114Y30039D02*
D03*
X-28386Y-24961D02*
D03*
X41614Y-34961D02*
D03*
X-13386D02*
D03*
X1614D02*
D03*
X-35886Y30039D02*
D03*
X-886Y-29961D02*
D03*
X6614Y-34961D02*
D03*
X19114Y20039D02*
D03*
X26614Y25039D02*
D03*
X29114Y20039D02*
D03*
X-15886Y-29961D02*
D03*
X29114Y30039D02*
D03*
X21614Y25039D02*
D03*
X-35886Y-29961D02*
D03*
X-28386Y-34961D02*
D03*
X-13386Y-4961D02*
D03*
X31614Y-34961D02*
D03*
X36614D02*
D03*
X-15886Y10039D02*
D03*
X31614Y25039D02*
D03*
X-8386Y-34961D02*
D03*
X4114Y-29961D02*
D03*
X1614Y-4961D02*
D03*
X39114Y30039D02*
D03*
X-3386Y-4961D02*
D03*
X-33386Y-24961D02*
D03*
X-20886Y30039D02*
D03*
X-38386Y-34961D02*
D03*
X-23386Y25039D02*
D03*
X16614Y-34961D02*
D03*
X21614D02*
D03*
X-30886Y30039D02*
D03*
X11614Y-34961D02*
D03*
X-18386Y25039D02*
D03*
X-33386Y-34961D02*
D03*
X-18386D02*
D03*
X6614Y-4961D02*
D03*
X-15886Y30039D02*
D03*
X34114Y-29961D02*
D03*
X-33386Y25039D02*
D03*
X-25886Y30039D02*
D03*
X24114D02*
D03*
Y20039D02*
D03*
X34114Y30039D02*
D03*
X-28386Y25039D02*
D03*
X-3386Y-34961D02*
D03*
X-30886Y-29961D02*
D03*
X14114Y20039D02*
D03*
X-8661Y-13386D02*
D03*
X-20472Y-12598D02*
D03*
X-4724Y-22835D02*
D03*
X7874Y11024D02*
D03*
X10236Y0D02*
D03*
X20472Y-16929D02*
D03*
X5118Y-20079D02*
D03*
M02*
