G04*
G04 #@! TF.GenerationSoftware,Altium Limited,Altium Designer,20.0.10 (225)*
G04*
G04 Layer_Color=8388736*
%FSLAX25Y25*%
%MOIN*%
G70*
G01*
G75*
%ADD12O,0.08674X0.07887*%
%ADD13R,0.08674X0.07887*%
%ADD14C,0.08674*%
%ADD15O,0.16548X0.20485*%
%ADD16C,0.01200*%
%ADD17C,0.00400*%
D12*
X-38583Y20000D02*
D03*
Y10000D02*
D03*
Y0D02*
D03*
Y-10000D02*
D03*
X38583Y20000D02*
D03*
Y10000D02*
D03*
Y0D02*
D03*
Y-10000D02*
D03*
D13*
X-38583Y-20000D02*
D03*
X38583D02*
D03*
D14*
X9843Y-27559D02*
D03*
X-9843D02*
D03*
Y29528D02*
D03*
X0D02*
D03*
X9843D02*
D03*
D15*
X-24409Y0D02*
D03*
X24409D02*
D03*
D16*
X-16142Y16142D02*
D03*
D17*
X13386Y9055D02*
D03*
X33071Y-12205D02*
D03*
X25591Y12205D02*
D03*
X19685Y11417D02*
D03*
X-8386Y-4961D02*
D03*
X16614Y25039D02*
D03*
X19114Y30039D02*
D03*
X-28386Y-24961D02*
D03*
X41614Y-34961D02*
D03*
X-13386D02*
D03*
X1614D02*
D03*
X-35886Y30039D02*
D03*
X-886Y-29961D02*
D03*
X6614Y-34961D02*
D03*
X19114Y20039D02*
D03*
X26614Y25039D02*
D03*
X29114Y20039D02*
D03*
X-15886Y-29961D02*
D03*
X29114Y30039D02*
D03*
X21614Y25039D02*
D03*
X-35886Y-29961D02*
D03*
X-28386Y-34961D02*
D03*
X-13386Y-4961D02*
D03*
X31614Y-34961D02*
D03*
X36614D02*
D03*
X-15886Y10039D02*
D03*
X31614Y25039D02*
D03*
X-8386Y-34961D02*
D03*
X4114Y-29961D02*
D03*
X1614Y-4961D02*
D03*
X39114Y30039D02*
D03*
X-3386Y-4961D02*
D03*
X-33386Y-24961D02*
D03*
X-20886Y30039D02*
D03*
X-38386Y-34961D02*
D03*
X-23386Y25039D02*
D03*
X16614Y-34961D02*
D03*
X21614D02*
D03*
X-30886Y30039D02*
D03*
X11614Y-34961D02*
D03*
X-18386Y25039D02*
D03*
X-33386Y-34961D02*
D03*
X-18386D02*
D03*
X6614Y-4961D02*
D03*
X-15886Y30039D02*
D03*
X34114Y-29961D02*
D03*
X-33386Y25039D02*
D03*
X-25886Y30039D02*
D03*
X24114D02*
D03*
Y20039D02*
D03*
X34114Y30039D02*
D03*
X-28386Y25039D02*
D03*
X-3386Y-34961D02*
D03*
X-30886Y-29961D02*
D03*
X14114Y20039D02*
D03*
X-8661Y-13386D02*
D03*
X-20472Y-12598D02*
D03*
X-4724Y-22835D02*
D03*
X7874Y11024D02*
D03*
X10236Y0D02*
D03*
X20472Y-16929D02*
D03*
X5118Y-20079D02*
D03*
M02*
