G04*
G04 #@! TF.GenerationSoftware,Altium Limited,Altium Designer,20.0.10 (225)*
G04*
G04 Layer_Color=32896*
%FSLAX25Y25*%
%MOIN*%
G70*
G01*
G75*
%ADD11C,0.00787*%
%ADD39C,0.00600*%
%ADD40C,0.00984*%
%ADD41C,0.00591*%
%ADD42C,0.00472*%
D11*
X12598Y-7874D02*
Y0D01*
X-7087D02*
X12598D01*
X-7087Y-7874D02*
X12598D01*
X-7087D02*
Y0D01*
D39*
X24803Y-23634D02*
G03*
X21303Y-27134I0J-3500D01*
G01*
X28303D02*
G03*
X24803Y-23634I-3500J0D01*
G01*
Y-34634D02*
G03*
X28303Y-31134I0J3500D01*
G01*
X21303D02*
G03*
X24803Y-34634I3500J0D01*
G01*
X850Y17185D02*
Y22185D01*
X-7150Y17185D02*
X850D01*
X-7150D02*
Y22185D01*
X850D01*
X1905Y17185D02*
Y22185D01*
X9905D01*
Y17185D02*
Y22185D01*
X1905Y17185D02*
X9905D01*
X-13130Y8598D02*
Y16598D01*
Y8598D02*
X-8130D01*
Y16598D01*
X-13130D02*
X-8130D01*
X21303Y-29134D02*
Y-27134D01*
X28303Y-31134D02*
Y-27134D01*
X21303Y-31134D02*
Y-29134D01*
X-13130Y331D02*
Y8331D01*
Y331D02*
X-8130D01*
Y8331D01*
X-13130D02*
X-8130D01*
X-26685Y23579D02*
X-12685D01*
Y16579D02*
Y23579D01*
X-26685Y16579D02*
Y23579D01*
Y16579D02*
X-12685D01*
X850Y11673D02*
Y16673D01*
X-7150Y11673D02*
X850D01*
X-7150D02*
Y16673D01*
X850D01*
X1905Y11673D02*
Y16673D01*
X9905D01*
Y11673D02*
Y16673D01*
X1905Y11673D02*
X9905D01*
X10492Y10567D02*
Y18567D01*
Y10567D02*
X15492D01*
Y18567D01*
X10492D02*
X15492D01*
X18642Y-19354D02*
Y-11354D01*
X13642D02*
X18642D01*
X13642Y-19354D02*
Y-11354D01*
Y-19354D02*
X18642D01*
D40*
X-7598Y5315D02*
G03*
X-7598Y5315I-492J0D01*
G01*
D41*
X-26714Y-13619D02*
X-26283D01*
X-25852Y-13835D01*
X-25421Y-14266D01*
X-25206Y-14696D01*
Y-15127D01*
X-25421Y-15343D01*
X-25744Y-15451D01*
X-25960D01*
X-26283Y-15343D01*
X-27145Y-14912D01*
X-27468Y-14804D01*
X-27683Y-14804D01*
X-28007Y-14912D01*
X-28330Y-15235D01*
X-28330Y-15666D01*
X-28114Y-16097D01*
X-27683Y-16528D01*
X-27252Y-16743D01*
X-26822D01*
X-26897Y-12790D02*
X-29159Y-15052D01*
X-26897Y-12790D02*
X-27651Y-12036D01*
X-28082Y-11820D01*
X-28513D01*
X-28836Y-11928D01*
X-29267Y-12143D01*
X-29805Y-12682D01*
X-30021Y-13113D01*
X-30129Y-13436D01*
X-30129Y-13867D01*
X-29913Y-14298D01*
X-29159Y-15052D01*
X-32897Y-11314D02*
X-29773Y-9913D01*
X-31174Y-13037D01*
X-30743Y-11960D02*
X-31820Y-10883D01*
X28186Y-10966D02*
Y-10535D01*
X28402Y-10104D01*
X28833Y-9673D01*
X29263Y-9458D01*
X29694D01*
X29910Y-9673D01*
X30018Y-9996D01*
Y-10212D01*
X29910Y-10535D01*
X29479Y-11397D01*
X29371Y-11720D01*
X29371Y-11935D01*
X29479Y-12258D01*
X29802Y-12582D01*
X30233Y-12582D01*
X30664Y-12366D01*
X31095Y-11935D01*
X31310Y-11504D01*
Y-11073D01*
X27357Y-11149D02*
X29619Y-13411D01*
X27357Y-11149D02*
X26603Y-11903D01*
X26387Y-12334D01*
Y-12765D01*
X26495Y-13088D01*
X26710Y-13519D01*
X27249Y-14058D01*
X27680Y-14273D01*
X28003Y-14381D01*
X28434Y-14381D01*
X28865Y-14165D01*
X29619Y-13411D01*
X25881Y-17149D02*
X24480Y-14025D01*
X27604Y-15426D01*
X26527Y-14995D02*
X25450Y-16072D01*
X30953Y21844D02*
Y19102D01*
X-29972Y11024D02*
X-32714D01*
X-31343Y12396D02*
Y9653D01*
X29827Y-17756D02*
Y-17325D01*
X30043Y-16894D01*
X30474Y-16463D01*
X30904Y-16248D01*
X31335D01*
X31551Y-16463D01*
X31659Y-16786D01*
Y-17002D01*
X31551Y-17325D01*
X31120Y-18187D01*
X31012Y-18510D01*
X31012Y-18725D01*
X31120Y-19048D01*
X31443Y-19372D01*
X31874Y-19372D01*
X32305Y-19156D01*
X32736Y-18725D01*
X32951Y-18294D01*
Y-17863D01*
X27920Y-20093D02*
X27813Y-19770D01*
Y-19339D01*
X27920Y-19016D01*
X28351Y-18585D01*
X28674Y-18477D01*
X29105Y-18477D01*
X29428Y-18585D01*
X29859Y-18801D01*
X30398Y-19339D01*
X30613Y-19770D01*
X30721Y-20093D01*
Y-20524D01*
X30613Y-20847D01*
X30183Y-21278D01*
X29859Y-21386D01*
X29428Y-21386D01*
X29105Y-21278D01*
X26746Y-20190D02*
X29008Y-22453D01*
X27716Y-23745D01*
X-27204Y-19821D02*
X-26774D01*
X-26343Y-20037D01*
X-25912Y-20468D01*
X-25696Y-20899D01*
Y-21330D01*
X-25912Y-21545D01*
X-26235Y-21653D01*
X-26450D01*
X-26774Y-21545D01*
X-27635Y-21114D01*
X-27959Y-21007D01*
X-28174Y-21007D01*
X-28497Y-21114D01*
X-28820Y-21437D01*
X-28820Y-21868D01*
X-28605Y-22299D01*
X-28174Y-22730D01*
X-27743Y-22946D01*
X-27312D01*
X-29542Y-17915D02*
X-29219Y-17807D01*
X-28788D01*
X-28465Y-17915D01*
X-28034Y-18346D01*
X-27926Y-18669D01*
X-27926Y-19100D01*
X-28034Y-19423D01*
X-28249Y-19854D01*
X-28788Y-20392D01*
X-29219Y-20608D01*
X-29542Y-20716D01*
X-29973D01*
X-30296Y-20608D01*
X-30727Y-20177D01*
X-30835Y-19854D01*
X-30835Y-19423D01*
X-30727Y-19100D01*
X-29639Y-16740D02*
X-31901Y-19003D01*
X-33194Y-17710D01*
X29578Y11812D02*
X32320D01*
X30949Y13183D02*
Y10441D01*
X36853Y-30099D02*
Y-26900D01*
X37523Y-30099D02*
Y-26900D01*
Y-30099D02*
X39656Y-26900D01*
Y-30099D02*
Y-26900D01*
X41606Y-30099D02*
Y-26900D01*
X40540Y-30099D02*
X42673D01*
X-40706Y-29706D02*
Y-26506D01*
X-40036Y-29706D02*
Y-26506D01*
Y-29706D02*
X-37903Y-26506D01*
Y-29706D02*
Y-26506D01*
X-35953Y-29706D02*
Y-26506D01*
X-37019Y-29706D02*
X-34886D01*
X-30953Y21844D02*
Y19102D01*
D42*
X19422Y-30118D02*
X19882Y-30577D01*
Y-31495D01*
X19422Y-31954D01*
X18963D01*
X18504Y-31495D01*
Y-30577D01*
X18045Y-30118D01*
X17586D01*
X17126Y-30577D01*
Y-31495D01*
X17586Y-31954D01*
X19882Y-27363D02*
Y-28281D01*
Y-27822D01*
X17586D01*
X17126Y-28281D01*
Y-28740D01*
X17586Y-29199D01*
X17126Y-26444D02*
Y-25526D01*
Y-25985D01*
X19882D01*
X19422Y-26444D01*
X-16732Y13648D02*
X-13977D01*
Y11811D01*
Y10893D02*
Y9974D01*
Y10434D01*
X-16732D01*
X-16273Y10893D01*
X5184Y25328D02*
X5643Y25787D01*
X6561D01*
X7020Y25328D01*
Y23491D01*
X6561Y23032D01*
X5643D01*
X5184Y23491D01*
X2888Y23032D02*
Y25787D01*
X4265Y24409D01*
X2429D01*
X-4265Y25328D02*
X-3806Y25787D01*
X-2888D01*
X-2429Y25328D01*
Y23491D01*
X-2888Y23032D01*
X-3806D01*
X-4265Y23491D01*
X-5184Y25328D02*
X-5643Y25787D01*
X-6561D01*
X-7020Y25328D01*
Y24869D01*
X-6561Y24409D01*
X-6102D01*
X-6561D01*
X-7020Y23950D01*
Y23491D01*
X-6561Y23032D01*
X-5643D01*
X-5184Y23491D01*
X16338Y-9501D02*
X14370D01*
X13977Y-9370D01*
X13714Y-9107D01*
X13583Y-8714D01*
Y-8451D01*
X13714Y-8058D01*
X13977Y-7795D01*
X14370Y-7664D01*
X16338D01*
X15813Y-6903D02*
X15945Y-6641D01*
X16338Y-6247D01*
X13583D01*
X13582Y19443D02*
X10827D01*
X13582D02*
Y20624D01*
X13451Y21017D01*
X13320Y21148D01*
X13058Y21280D01*
X12795D01*
X12533Y21148D01*
X12402Y21017D01*
X12270Y20624D01*
Y19443D01*
Y20361D02*
X10827Y21280D01*
X13582Y23208D02*
X11745Y21896D01*
Y23864D01*
X13582Y23208D02*
X10827D01*
X-10826Y21830D02*
X-8071D01*
X-10826D02*
Y20649D01*
X-10695Y20256D01*
X-10564Y20125D01*
X-10302Y19993D01*
X-10039D01*
X-9777Y20125D01*
X-9646Y20256D01*
X-9514Y20649D01*
Y21830D01*
Y20912D02*
X-8071Y19993D01*
X-10826Y19114D02*
Y17671D01*
X-9777Y18458D01*
Y18065D01*
X-9646Y17802D01*
X-9514Y17671D01*
X-9121Y17540D01*
X-8858D01*
X-8465Y17671D01*
X-8202Y17933D01*
X-8071Y18327D01*
Y18721D01*
X-8202Y19114D01*
X-8334Y19245D01*
X-8596Y19377D01*
X19094Y12815D02*
X16339D01*
X19094D02*
Y13996D01*
X18963Y14390D01*
X18832Y14521D01*
X18569Y14652D01*
X18307D01*
X18045Y14521D01*
X17913Y14390D01*
X17782Y13996D01*
Y12815D01*
Y13734D02*
X16339Y14652D01*
X18438Y15400D02*
X18569D01*
X18832Y15531D01*
X18963Y15663D01*
X19094Y15925D01*
Y16450D01*
X18963Y16712D01*
X18832Y16843D01*
X18569Y16975D01*
X18307D01*
X18045Y16843D01*
X17651Y16581D01*
X16339Y15269D01*
Y17106D01*
X14587Y-23031D02*
Y-20276D01*
Y-23031D02*
X15768D01*
X16161Y-22900D01*
X16293Y-22769D01*
X16424Y-22506D01*
Y-22244D01*
X16293Y-21982D01*
X16161Y-21850D01*
X15768Y-21719D01*
X14587D01*
X15505D02*
X16424Y-20276D01*
X17041Y-22506D02*
X17303Y-22638D01*
X17696Y-23031D01*
Y-20276D01*
X-19757Y26312D02*
X-19626Y26575D01*
X-19364Y26837D01*
X-19101Y26968D01*
X-18576D01*
X-18314Y26837D01*
X-18052Y26575D01*
X-17920Y26312D01*
X-17789Y25919D01*
Y25262D01*
X-17920Y24869D01*
X-18052Y24607D01*
X-18314Y24344D01*
X-18576Y24213D01*
X-19101D01*
X-19364Y24344D01*
X-19626Y24607D01*
X-19757Y24869D01*
X-20663Y26312D02*
Y26443D01*
X-20794Y26706D01*
X-20925Y26837D01*
X-21187Y26968D01*
X-21712D01*
X-21975Y26837D01*
X-22106Y26706D01*
X-22237Y26443D01*
Y26181D01*
X-22106Y25919D01*
X-21844Y25525D01*
X-20531Y24213D01*
X-22368D01*
X-11148Y-2690D02*
X-11280Y-2953D01*
X-11542Y-3215D01*
X-11804Y-3346D01*
X-12329D01*
X-12592Y-3215D01*
X-12854Y-2953D01*
X-12985Y-2690D01*
X-13116Y-2296D01*
Y-1640D01*
X-12985Y-1247D01*
X-12854Y-984D01*
X-12592Y-722D01*
X-12329Y-591D01*
X-11804D01*
X-11542Y-722D01*
X-11280Y-984D01*
X-11148Y-1247D01*
X-10374Y-2821D02*
X-10112Y-2953D01*
X-9718Y-3346D01*
Y-591D01*
M02*
