M48
;Layer_Color=9474304
;FILE_FORMAT=2:5
INCH,LZ
;TYPE=PLATED
T1F00S00C0.01200
T2F00S00C0.01800
T3F00S00C0.04724
T4F00S00C0.05315
%
T01
X-0038386Y-0034961
X-0033386
X-0028386
X-0030886Y-0029961
X-0035886
X-0033386Y-0024961
X-0028386
X-0015886Y-0029961
X-0013386Y-0034961
X-0008386
X-0003386
X0001614
X0006614
X0011614
X0016614
X0021614
X0031614
X0036614
X0041614
X0034114Y-0029961
X0033071Y-0012205
X0020472Y-0016929
X0005118Y-0020079
X0004114Y-0029961
X-0000886
X-0004724Y-0022835
X-0008661Y-0013386
X-0008386Y-0004961
X-0013386
X-0003386
X0001614
X0006614
X-0020472Y-0012598
X-0018386Y-0034961
X-0015886Y0010039
X-0018386Y0025039
X-0023386
X-0028386
X-0033386
X-0035886Y0030039
X-0030886
X-0025886
X-0020886
X-0015886
X0019114
X0024114
X0029114
X0034114
X0039114
X0031614Y0025039
X0026614
X0021614
X0016614
X0019114Y0020039
X0024114
X0029114
X0025591Y0012205
X0019685Y0011417
X0013386Y0009055
X0007874Y0011024
X0010236Y0
X0014114Y0020039
T02
X-0016142Y0016142
T03
X-0038583Y-002
Y-001
X0038583
Y-002
Y0
Y001
Y002
X-0038583
Y001
Y0
T04
X-0009843Y-0027559
X0009843
Y0029528
X0
X-0009843
M30
